HIERARCHY
ROOT mixamorig:Hips
{
	OFFSET 0.000000 103.991501 0.000000
	CHANNELS 6 Xposition Yposition Zposition Xrotation Yrotation Zrotation
	JOINT mixamorig:Spine
	{
		OFFSET 0.000000 10.181602 0.131500
		CHANNELS 6 Xposition Yposition Zposition Xrotation Yrotation Zrotation
		JOINT mixamorig:Spine1
		{
			OFFSET 0.000000 10.083504 -1.000800
			CHANNELS 6 Xposition Yposition Zposition Xrotation Yrotation Zrotation
			JOINT mixamorig:Spine2
			{
				OFFSET 0.000000 9.100006 -1.373400
				CHANNELS 6 Xposition Yposition Zposition Xrotation Yrotation Zrotation
				JOINT mixamorig:Neck
				{
					OFFSET 0.000000 16.671707 -2.516200
					CHANNELS 6 Xposition Yposition Zposition Xrotation Yrotation Zrotation
					JOINT mixamorig:Head
					{
						OFFSET 0.000000 9.617905 1.685000
						CHANNELS 6 Xposition Yposition Zposition Xrotation Yrotation Zrotation
						JOINT mixamorig:HeadTop_End
						{
							OFFSET 0.000000 17.815201 2.585000
							CHANNELS 6 Xposition Yposition Zposition Xrotation Yrotation Zrotation
							End Site
							{
								OFFSET 0.000000 13.794495 0.000000
							}
						}
						JOINT mixamorig:LeftEye
						{
							OFFSET 3.067600 6.409500 9.283600
							CHANNELS 6 Xposition Yposition Zposition Xrotation Yrotation Zrotation
							End Site
							{
								OFFSET 0.000000 13.794495 0.000000
							}
						}
						JOINT mixamorig:RightEye
						{
							OFFSET -3.067600 6.409500 9.283500
							CHANNELS 6 Xposition Yposition Zposition Xrotation Yrotation Zrotation
							End Site
							{
								OFFSET 0.000000 13.794495 0.000000
							}
						}
					}
				}
				JOINT mixamorig:LeftShoulder
				{
					OFFSET 4.570400 10.945999 -2.628000
					CHANNELS 6 Xposition Yposition Zposition Xrotation Yrotation Zrotation
					JOINT mixamorig:LeftArm
					{
						OFFSET 10.592400 -0.524597 -2.232100
						CHANNELS 6 Xposition Yposition Zposition Xrotation Yrotation Zrotation
						JOINT mixamorig:LeftForeArm
						{
							OFFSET 27.841499 0.000000 0.000000
							CHANNELS 6 Xposition Yposition Zposition Xrotation Yrotation Zrotation
							JOINT mixamorig:LeftHand
							{
								OFFSET 28.328800 0.000000 0.000000
								CHANNELS 6 Xposition Yposition Zposition Xrotation Yrotation Zrotation
								JOINT mixamorig:LeftHandThumb1
								{
									OFFSET 2.466103 -1.576218 2.681689
									CHANNELS 6 Xposition Yposition Zposition Xrotation Yrotation Zrotation
									JOINT mixamorig:LeftHandThumb2
									{
										OFFSET 3.229782 -1.864716 1.864716
										CHANNELS 6 Xposition Yposition Zposition Xrotation Yrotation Zrotation
										JOINT mixamorig:LeftHandThumb3
										{
											OFFSET 2.652611 -1.531494 1.531488
											CHANNELS 6 Xposition Yposition Zposition Xrotation Yrotation Zrotation
											JOINT mixamorig:LeftHandThumb4
											{
												OFFSET 1.954605 -1.128494 1.128493
												CHANNELS 6 Xposition Yposition Zposition Xrotation Yrotation Zrotation
												End Site
												{
													OFFSET -0.000404 2.523392 0.000683
												}
											}
										}
									}
								}
								JOINT mixamorig:LeftHandIndex1
								{
									OFFSET 9.109299 -0.518112 2.259867
									CHANNELS 6 Xposition Yposition Zposition Xrotation Yrotation Zrotation
									JOINT mixamorig:LeftHandIndex2
									{
										OFFSET 3.676399 0.000000 0.000000
										CHANNELS 6 Xposition Yposition Zposition Xrotation Yrotation Zrotation
										JOINT mixamorig:LeftHandIndex3
										{
											OFFSET 2.883102 0.000000 0.000000
											CHANNELS 6 Xposition Yposition Zposition Xrotation Yrotation Zrotation
											JOINT mixamorig:LeftHandIndex4
											{
												OFFSET 2.392700 0.000000 0.000000
												CHANNELS 6 Xposition Yposition Zposition Xrotation Yrotation Zrotation
												End Site
												{
													OFFSET 0.000000 2.392700 0.001080
												}
											}
										}
									}
								}
								JOINT mixamorig:LeftHandMiddle1
								{
									OFFSET 9.533401 0.000000 0.000000
									CHANNELS 6 Xposition Yposition Zposition Xrotation Yrotation Zrotation
									JOINT mixamorig:LeftHandMiddle2
									{
										OFFSET 3.698196 0.000000 0.000000
										CHANNELS 6 Xposition Yposition Zposition Xrotation Yrotation Zrotation
										JOINT mixamorig:LeftHandMiddle3
										{
											OFFSET 2.950897 0.000000 0.000000
											CHANNELS 6 Xposition Yposition Zposition Xrotation Yrotation Zrotation
											JOINT mixamorig:LeftHandMiddle4
											{
												OFFSET 2.833900 0.000000 0.000000
												CHANNELS 6 Xposition Yposition Zposition Xrotation Yrotation Zrotation
												End Site
												{
													OFFSET 0.000000 2.833893 0.001278
												}
											}
										}
									}
								}
								JOINT mixamorig:LeftHandRing1
								{
									OFFSET 9.104500 -0.043060 -1.865119
									CHANNELS 6 Xposition Yposition Zposition Xrotation Yrotation Zrotation
									JOINT mixamorig:LeftHandRing2
									{
										OFFSET 3.153999 0.000000 0.000000
										CHANNELS 6 Xposition Yposition Zposition Xrotation Yrotation Zrotation
										JOINT mixamorig:LeftHandRing3
										{
											OFFSET 2.937698 0.000000 0.000000
											CHANNELS 6 Xposition Yposition Zposition Xrotation Yrotation Zrotation
											JOINT mixamorig:LeftHandRing4
											{
												OFFSET 2.647499 0.000000 0.000000
												CHANNELS 6 Xposition Yposition Zposition Xrotation Yrotation Zrotation
												End Site
												{
													OFFSET 0.000000 2.647507 0.001195
												}
											}
										}
									}
								}
								JOINT mixamorig:LeftHandPinky1
								{
									OFFSET 8.077797 -0.486984 -3.806321
									CHANNELS 6 Xposition Yposition Zposition Xrotation Yrotation Zrotation
									JOINT mixamorig:LeftHandPinky2
									{
										OFFSET 3.599998 0.000000 0.000000
										CHANNELS 6 Xposition Yposition Zposition Xrotation Yrotation Zrotation
										JOINT mixamorig:LeftHandPinky3
										{
											OFFSET 2.114197 0.000000 0.000000
											CHANNELS 6 Xposition Yposition Zposition Xrotation Yrotation Zrotation
											JOINT mixamorig:LeftHandPinky4
											{
												OFFSET 1.975700 0.000000 0.000000
												CHANNELS 6 Xposition Yposition Zposition Xrotation Yrotation Zrotation
												End Site
												{
													OFFSET 0.000000 1.975693 0.000892
												}
											}
										}
									}
								}
							}
						}
					}
				}
				JOINT mixamorig:RightShoulder
				{
					OFFSET -4.570000 10.946198 -2.628000
					CHANNELS 6 Xposition Yposition Zposition Xrotation Yrotation Zrotation
					JOINT mixamorig:RightArm
					{
						OFFSET -10.592800 -0.524796 -2.232100
						CHANNELS 6 Xposition Yposition Zposition Xrotation Yrotation Zrotation
						JOINT mixamorig:RightForeArm
						{
							OFFSET -27.841499 0.000000 0.000000
							CHANNELS 6 Xposition Yposition Zposition Xrotation Yrotation Zrotation
							JOINT mixamorig:RightHand
							{
								OFFSET -28.328800 0.000000 0.000000
								CHANNELS 6 Xposition Yposition Zposition Xrotation Yrotation Zrotation
								JOINT mixamorig:RightHandPinky1
								{
									OFFSET -8.076698 -0.486725 -3.806227
									CHANNELS 6 Xposition Yposition Zposition Xrotation Yrotation Zrotation
									JOINT mixamorig:RightHandPinky2
									{
										OFFSET -3.599998 0.000000 0.000000
										CHANNELS 6 Xposition Yposition Zposition Xrotation Yrotation Zrotation
										JOINT mixamorig:RightHandPinky3
										{
											OFFSET -2.114197 0.000000 0.000000
											CHANNELS 6 Xposition Yposition Zposition Xrotation Yrotation Zrotation
											JOINT mixamorig:RightHandPinky4
											{
												OFFSET -1.975700 0.000000 0.000000
												CHANNELS 6 Xposition Yposition Zposition Xrotation Yrotation Zrotation
												End Site
												{
													OFFSET 0.000000 1.975693 0.000919
												}
											}
										}
									}
								}
								JOINT mixamorig:RightHandRing1
								{
									OFFSET -9.103600 -0.043030 -1.865120
									CHANNELS 6 Xposition Yposition Zposition Xrotation Yrotation Zrotation
									JOINT mixamorig:RightHandRing2
									{
										OFFSET -3.153999 0.000000 0.000000
										CHANNELS 6 Xposition Yposition Zposition Xrotation Yrotation Zrotation
										JOINT mixamorig:RightHandRing3
										{
											OFFSET -2.937698 0.000000 0.000000
											CHANNELS 6 Xposition Yposition Zposition Xrotation Yrotation Zrotation
											JOINT mixamorig:RightHandRing4
											{
												OFFSET -2.647499 0.000000 0.000000
												CHANNELS 6 Xposition Yposition Zposition Xrotation Yrotation Zrotation
												End Site
												{
													OFFSET 0.000000 2.647507 0.001231
												}
											}
										}
									}
								}
								JOINT mixamorig:RightHandMiddle1
								{
									OFFSET -9.532501 0.000000 0.000000
									CHANNELS 6 Xposition Yposition Zposition Xrotation Yrotation Zrotation
									JOINT mixamorig:RightHandMiddle2
									{
										OFFSET -3.698196 0.000000 0.000000
										CHANNELS 6 Xposition Yposition Zposition Xrotation Yrotation Zrotation
										JOINT mixamorig:RightHandMiddle3
										{
											OFFSET -2.950897 0.000000 0.000000
											CHANNELS 6 Xposition Yposition Zposition Xrotation Yrotation Zrotation
											JOINT mixamorig:RightHandMiddle4
											{
												OFFSET -2.833900 0.000000 0.000000
												CHANNELS 6 Xposition Yposition Zposition Xrotation Yrotation Zrotation
												End Site
												{
													OFFSET 0.000000 2.833893 0.001318
												}
											}
										}
									}
								}
								JOINT mixamorig:RightHandIndex1
								{
									OFFSET -9.108299 -0.517853 2.259859
									CHANNELS 6 Xposition Yposition Zposition Xrotation Yrotation Zrotation
									JOINT mixamorig:RightHandIndex2
									{
										OFFSET -3.676399 0.000000 0.000000
										CHANNELS 6 Xposition Yposition Zposition Xrotation Yrotation Zrotation
										JOINT mixamorig:RightHandIndex3
										{
											OFFSET -2.883102 0.000000 0.000000
											CHANNELS 6 Xposition Yposition Zposition Xrotation Yrotation Zrotation
											JOINT mixamorig:RightHandIndex4
											{
												OFFSET -2.392700 0.000000 0.000000
												CHANNELS 6 Xposition Yposition Zposition Xrotation Yrotation Zrotation
												End Site
												{
													OFFSET 0.000000 2.392700 0.001113
												}
											}
										}
									}
								}
								JOINT mixamorig:RightHandThumb1
								{
									OFFSET -2.464798 -1.573944 2.681868
									CHANNELS 6 Xposition Yposition Zposition Xrotation Yrotation Zrotation
									JOINT mixamorig:RightHandThumb2
									{
										OFFSET -3.229782 -1.864716 1.864716
										CHANNELS 6 Xposition Yposition Zposition Xrotation Yrotation Zrotation
										JOINT mixamorig:RightHandThumb3
										{
											OFFSET -2.652542 -1.531448 1.531448
											CHANNELS 6 Xposition Yposition Zposition Xrotation Yrotation Zrotation
											JOINT mixamorig:RightHandThumb4
											{
												OFFSET -1.954605 -1.128494 1.128493
												CHANNELS 6 Xposition Yposition Zposition Xrotation Yrotation Zrotation
												End Site
												{
													OFFSET 0.000412 2.523392 0.000704
												}
											}
										}
									}
								}
							}
						}
					}
				}
			}
		}
	}
	JOINT mixamorig:LeftUpLeg
	{
		OFFSET 8.207800 -6.751701 -1.599600
		CHANNELS 6 Xposition Yposition Zposition Xrotation Yrotation Zrotation
		JOINT mixamorig:LeftLeg
		{
			OFFSET 0.000000 -44.370499 0.284600
			CHANNELS 6 Xposition Yposition Zposition Xrotation Yrotation Zrotation
			JOINT mixamorig:LeftFoot
			{
				OFFSET 0.000000 -44.427898 -2.982200
				CHANNELS 6 Xposition Yposition Zposition Xrotation Yrotation Zrotation
				JOINT mixamorig:LeftToeBase
				{
					OFFSET 0.000000 -8.728700 10.710600
					CHANNELS 6 Xposition Yposition Zposition Xrotation Yrotation Zrotation
					JOINT mixamorig:LeftToe_End
					{
						OFFSET 0.000000 -0.000700 9.278099
						CHANNELS 6 Xposition Yposition Zposition Xrotation Yrotation Zrotation
						End Site
						{
							OFFSET 0.000000 9.278100 0.000000
						}
					}
				}
			}
		}
	}
	JOINT mixamorig:RightUpLeg
	{
		OFFSET -8.207800 -6.751701 -1.599600
		CHANNELS 6 Xposition Yposition Zposition Xrotation Yrotation Zrotation
		JOINT mixamorig:RightLeg
		{
			OFFSET 0.000000 -44.370499 0.286200
			CHANNELS 6 Xposition Yposition Zposition Xrotation Yrotation Zrotation
			JOINT mixamorig:RightFoot
			{
				OFFSET 0.000000 -44.427700 -2.983800
				CHANNELS 6 Xposition Yposition Zposition Xrotation Yrotation Zrotation
				JOINT mixamorig:RightToeBase
				{
					OFFSET 0.000000 -8.728700 10.710600
					CHANNELS 6 Xposition Yposition Zposition Xrotation Yrotation Zrotation
					JOINT mixamorig:RightToe_End
					{
						OFFSET 0.000000 -0.000700 9.278100
						CHANNELS 6 Xposition Yposition Zposition Xrotation Yrotation Zrotation
						End Site
						{
							OFFSET 0.000000 9.278100 0.000000
						}
					}
				}
			}
		}
	}
}
MOTION
Frames: 3
Frame Time: 0.016667
-19.058256 96.024292 -1.880188 15.484315 6.343230 -10.772556 0.000003 10.181594 0.131498 0.223451 -3.261136 5.546941 0.000002 10.083499 -1.000798 0.674316 -7.841317 9.388896 -0.000000 9.100011 -1.373406 0.811182 -7.844399 9.377573 0.000002 16.671728 -2.516204 -2.223923 3.029090 -1.086395 -0.000000 9.617894 1.685000 7.395538 13.610281 -5.721317 0.000002 17.815201 2.584995 -0.000003 -0.000000 -0.000001 3.067601 6.409501 9.283594 -0.000003 -0.000000 -0.000001 -3.067599 6.409516 9.283492 -0.000003 -0.000000 -0.000001 4.570402 10.946008 -2.627999 1.212870 -0.770289 -6.733475 10.592399 -0.524557 -2.232094 60.027623 -98.919465 37.136490 27.841496 0.000004 0.000002 -0.000017 -65.567917 -0.000013 28.328794 -0.000001 -0.000010 20.364006 -18.125696 22.239907 2.466101 -1.576219 2.681694 -1.623348 8.802364 6.907270 3.229777 -1.864737 1.864714 -0.427770 22.610670 16.689260 2.652626 -1.531497 1.531492 -1.790063 8.948762 10.153299 1.954599 -1.128479 1.128485 -0.000002 -0.000003 -0.000001 9.109286 -0.518128 2.259867 0.000000 -0.000001 0.000002 3.676396 -0.000001 -0.000000 -0.000002 0.000002 -0.000023 2.883100 0.000001 -0.000005 -0.000003 -0.000000 0.000001 2.392698 0.000016 -0.000002 -0.000003 -0.000000 0.000001 9.533401 -0.000011 0.000002 -0.000003 -0.001928 0.015984 3.698201 -0.000011 0.000002 -0.000002 0.001929 -0.015983 2.950897 0.000000 -0.000001 0.000003 0.000000 0.000000 2.833905 -0.000015 0.000005 0.000003 0.000000 -0.000002 9.104498 -0.043090 -1.865119 0.000001 -0.000001 0.000001 3.154001 -0.000003 -0.000001 0.000000 0.000002 -0.000004 2.937705 -0.000017 0.000001 0.000003 0.000001 0.000000 2.647498 -0.000000 0.000001 0.000000 0.000001 0.000000 8.077788 -0.486991 -3.806316 -0.018087 4.054253 0.511072 3.600006 -0.000031 -0.000001 -0.018087 -4.054253 -0.511072 2.114197 -0.000001 -0.000000 0.000001 0.000002 -0.000000 1.975708 0.000001 -0.000001 0.000001 0.000001 0.000000 -4.570000 10.946197 -2.628000 -0.414006 -8.359831 2.371336 -10.592794 -0.524789 -2.232101 25.440389 34.888640 63.464765 -27.841488 0.000005 0.000003 0.000000 12.586385 0.000015 -28.328794 0.000014 -0.000014 -24.010663 15.133266 -31.509678 -8.076696 -0.486729 -3.806225 0.000001 0.000001 -0.000007 -3.600000 -0.000027 -0.000002 -0.000000 -0.000000 0.000007 -2.114199 -0.000014 -0.000004 -0.000000 -0.000000 0.000001 -1.975719 -0.000001 -0.000000 0.000001 -0.000000 0.000004 -9.103597 -0.043042 -1.865119 0.000000 -0.000000 0.000002 -3.153996 -0.000009 -0.000004 0.000000 0.000001 0.000005 -2.937699 0.000001 0.000001 -0.000000 -0.000000 0.000000 -2.647507 0.000001 -0.000004 -0.000000 -0.000000 0.000000 -9.532512 -0.000012 0.000001 0.000000 -0.000000 0.000001 -3.698200 0.000006 -0.000001 0.000000 0.000001 0.000029 -2.950883 -0.000019 0.000000 -0.000000 -0.000001 0.000003 -2.833893 -0.000019 -0.000001 0.000000 -0.000000 -0.000000 -9.108303 -0.517865 2.259860 -0.000000 -0.000000 0.000002 -3.676408 -0.000014 -0.000003 0.000001 0.000000 0.000010 -2.883114 -0.000014 0.000003 -0.000000 -0.000000 0.000002 -2.392692 -0.000014 0.000002 -0.000000 0.000000 -0.000000 -2.464801 -1.573967 2.681870 -1.898134 -6.986645 -7.116737 -3.229787 -1.864696 1.864719 6.574142 -31.362347 -1.578263 -2.652529 -1.531448 1.531453 -0.287484 -11.195938 -3.253738 -1.954602 -1.128505 1.128496 -0.000002 -0.000000 -0.000001 8.207804 -6.751709 -1.599603 -7.074917 9.061618 -9.289490 0.000001 -44.370502 0.284598 22.857588 9.883133 -5.742336 -0.000001 -44.427898 -2.982200 -1.475971 19.438269 0.218893 -0.000002 -8.728702 10.710603 -37.206397 -0.000017 -0.000008 -0.000004 -0.000700 9.278095 -0.000000 0.000002 -0.000001 -8.207796 -6.751706 -1.599600 -37.052711 -7.272020 -2.052597 -0.000003 -44.370495 0.286197 37.187532 -4.739254 1.255211 -0.000008 -44.427700 -2.983802 -12.662225 -9.714821 8.263997 -0.000002 -8.728699 10.710599 -0.944902 0.000005 -0.000001 -0.000009 -0.000700 9.278098 0.000000 -0.000000 0.000000 
-18.895172 96.164864 -1.738344 16.216447 6.635177 -10.945528 0.000004 10.181609 0.131502 -0.109696 -3.539759 5.575241 0.000000 10.083508 -1.000801 0.010911 -8.544100 9.452095 0.000001 9.100014 -1.373401 0.153941 -8.575930 9.424735 -0.000001 16.671692 -2.516199 -1.682512 3.396927 -1.143062 -0.000000 9.617907 1.685006 7.135632 15.420171 -5.596685 0.000003 17.815216 2.584997 0.000000 0.000000 -0.000000 3.067602 6.409515 9.283603 0.000000 0.000000 -0.000000 -3.067599 6.409500 9.283502 0.000000 0.000000 -0.000000 4.570401 10.945994 -2.627998 1.026207 0.001711 -7.356398 10.592399 -0.524571 -2.232088 43.706247 -97.290430 15.705842 27.841499 -0.000009 -0.000000 -0.000050 -62.005297 -0.000047 28.328791 -0.000004 -0.000006 15.807558 -10.700819 31.601284 2.466092 -1.576234 2.681687 -1.623348 8.802364 6.907270 3.229778 -1.864722 1.864708 -0.427772 22.610665 16.689262 2.652617 -1.531478 1.531491 -1.790062 8.948763 10.153300 1.954615 -1.128479 1.128492 0.000001 0.000002 -0.000001 9.109290 -0.518129 2.259865 -0.000001 -0.000000 0.000001 3.676400 0.000016 0.000002 -0.000003 0.000001 -0.000022 2.883099 -0.000002 0.000003 -0.000001 0.000001 -0.000002 2.392697 -0.000001 0.000001 0.000001 0.000001 -0.000002 9.533395 -0.000009 0.000001 -0.000002 -0.001928 0.015987 3.698201 -0.000030 0.000005 -0.000002 0.001929 -0.015980 2.950899 -0.000017 0.000005 0.000002 -0.000001 -0.000001 2.833912 -0.000019 0.000002 0.000002 -0.000001 0.000001 9.104493 -0.043075 -1.865120 0.000001 -0.000000 -0.000000 3.153992 -0.000006 0.000005 0.000001 0.000002 -0.000003 2.937700 -0.000034 0.000001 0.000001 0.000000 -0.000001 2.647501 -0.000018 -0.000001 0.000001 0.000000 -0.000001 8.077782 -0.486997 -3.806321 -0.018091 4.054253 0.511072 3.599993 -0.000033 -0.000001 -0.018086 -4.054254 -0.511070 2.114202 -0.000001 0.000008 0.000000 -0.000000 -0.000002 1.975687 0.000012 0.000001 0.000000 0.000000 0.000002 -4.570001 10.946183 -2.627996 -0.393673 -8.234210 2.439529 -10.592801 -0.524812 -2.232098 25.871015 32.770602 61.871760 -27.841499 -0.000006 0.000005 -0.000007 15.327033 0.000009 -28.328789 0.000003 -0.000005 -25.815941 22.220706 -33.697934 -8.076701 -0.486714 -3.806226 -0.000001 0.000000 -0.000008 -3.600006 -0.000004 -0.000001 -0.000002 -0.000000 0.000009 -2.114199 -0.000002 -0.000002 -0.000001 -0.000000 0.000001 -1.975714 0.000001 0.000000 -0.000000 -0.000001 0.000003 -9.103600 -0.043029 -1.865119 -0.000000 -0.000000 0.000000 -3.154010 -0.000007 -0.000001 0.000000 0.000001 0.000004 -2.937714 -0.000007 0.000001 -0.000001 -0.000001 0.000003 -2.647502 -0.000002 -0.000002 -0.000001 0.000000 -0.000002 -9.532502 0.000001 0.000001 -0.000001 0.000001 0.000000 -3.698210 0.000007 0.000001 0.000001 0.000001 0.000030 -2.950899 -0.000017 -0.000001 -0.000000 0.000000 0.000004 -2.833894 -0.000004 -0.000000 0.000001 -0.000001 0.000004 -9.108308 -0.517852 2.259860 -0.000001 -0.000000 0.000000 -3.676388 0.000003 -0.000001 -0.000001 -0.000000 0.000011 -2.883117 0.000005 0.000003 -0.000000 -0.000001 -0.000000 -2.392694 -0.000015 -0.000001 -0.000000 -0.000001 0.000003 -2.464795 -1.573936 2.681868 -1.898134 -6.986646 -7.116740 -3.229784 -1.864697 1.864721 6.574142 -31.362350 -1.578267 -2.652536 -1.531459 1.531453 -0.287488 -11.195941 -3.253736 -1.954607 -1.128505 1.128493 -0.000004 0.000002 0.000001 8.207802 -6.751684 -1.599600 -9.921314 9.728395 -8.188961 0.000001 -44.370499 0.284603 26.822971 9.745246 -6.423778 0.000003 -44.427895 -2.982198 5.146268 16.296982 -4.435390 0.000005 -8.728701 10.710597 -42.698736 -0.144427 3.718646 0.000003 -0.000700 9.278100 0.000000 -0.000002 0.000000 -8.207797 -6.751684 -1.599597 -37.139632 -3.166185 0.776834 -0.000001 -44.370499 0.286198 37.854363 -4.354503 1.639863 0.000005 -44.427696 -2.983802 -14.594455 -6.314796 6.572085 -0.000003 -8.728699 10.710599 -1.954231 0.000000 0.000002 0.000000 -0.000700 9.278100 -0.000000 0.000000 -0.000000 
-18.738106 96.263191 -1.552870 16.761665 7.152341 -11.070964 0.000001 10.181605 0.131502 -0.394334 -3.847936 5.504285 0.000002 10.083501 -1.000797 -0.533692 -9.291474 9.445744 0.000000 9.099996 -1.373402 -0.387833 -9.346175 9.404838 -0.000001 16.671700 -2.516200 -1.271586 3.725387 -1.151667 -0.000001 9.617899 1.685004 6.891257 17.076045 -5.423037 0.000003 17.815201 2.585001 -0.000001 -0.000000 -0.000000 3.067600 6.409485 9.283605 -0.000001 -0.000000 -0.000000 -3.067602 6.409470 9.283504 -0.000001 -0.000000 -0.000000 4.570401 10.946021 -2.627999 0.829283 0.797700 -8.041974 10.592402 -0.524578 -2.232095 28.964886 -96.532307 -4.488946 27.841494 0.000003 0.000002 0.000004 -57.631968 0.000016 28.328798 -0.000012 0.000000 10.432451 -7.108098 41.722514 2.466090 -1.576229 2.681690 -1.623348 8.802362 6.907266 3.229781 -1.864707 1.864705 -0.427772 22.610667 16.689263 2.652619 -1.531463 1.531482 -1.790062 8.948763 10.153296 1.954607 -1.128482 1.128500 0.000001 0.000002 -0.000001 9.109292 -0.518113 2.259871 -0.000000 0.000001 -0.000003 3.676392 -0.000007 -0.000004 -0.000003 0.000000 -0.000022 2.883091 -0.000034 -0.000003 -0.000001 -0.000001 0.000001 2.392704 -0.000034 -0.000006 -0.000001 -0.000001 0.000001 9.533390 -0.000007 0.000003 -0.000005 -0.001926 0.015979 3.698207 -0.000023 -0.000002 -0.000002 0.001929 -0.015982 2.950891 0.000014 -0.000005 0.000001 -0.000001 -0.000000 2.833901 0.000001 -0.000001 -0.000002 -0.000002 -0.000000 9.104495 -0.043075 -1.865118 0.000001 -0.000000 -0.000004 3.154004 -0.000018 0.000012 0.000001 0.000002 -0.000002 2.937698 -0.000020 -0.000001 -0.000003 0.000001 0.000003 2.647506 -0.000017 0.000005 0.000002 -0.000000 0.000001 8.077783 -0.486975 -3.806324 -0.018090 4.054253 0.511069 3.599992 0.000001 -0.000000 -0.018081 -4.054256 -0.511073 2.114189 -0.000017 -0.000001 -0.000001 -0.000001 -0.000000 1.975695 0.000012 0.000003 -0.000004 -0.000001 -0.000001 -4.570003 10.946220 -2.627999 -0.377124 -8.165118 2.546601 -10.592800 -0.524793 -2.232100 25.421964 30.775139 60.839487 -27.841515 -0.000001 0.000005 -0.000000 17.989596 0.000002 -28.328800 0.000012 -0.000007 -26.828891 28.654645 -34.843670 -8.076705 -0.486729 -3.806225 0.000002 0.000001 -0.000006 -3.600006 -0.000011 0.000003 0.000001 -0.000000 0.000009 -2.114209 0.000000 -0.000004 -0.000000 -0.000002 0.000005 -1.975705 0.000008 -0.000001 -0.000000 -0.000000 0.000002 -9.103599 -0.043028 -1.865116 0.000001 -0.000001 -0.000000 -3.154006 -0.000021 0.000003 0.000001 0.000000 0.000006 -2.937700 -0.000010 0.000005 -0.000000 0.000001 0.000001 -2.647484 -0.000000 -0.000001 -0.000002 0.000000 0.000000 -9.532507 0.000002 0.000003 0.000001 0.000000 -0.000001 -3.698200 0.000008 0.000001 0.000001 0.000002 0.000026 -2.950894 -0.000014 0.000003 -0.000002 0.000000 0.000008 -2.833905 -0.000029 0.000000 -0.000001 -0.000001 0.000002 -9.108304 -0.517866 2.259859 0.000002 0.000000 -0.000001 -3.676406 -0.000014 0.000002 0.000003 -0.000001 0.000009 -2.883107 0.000012 0.000005 0.000001 -0.000000 0.000002 -2.392685 0.000002 0.000005 -0.000002 0.000002 -0.000003 -2.464800 -1.573938 2.681871 -1.898131 -6.986647 -7.116736 -3.229787 -1.864678 1.864717 6.574139 -31.362350 -1.578255 -2.652539 -1.531447 1.531449 -0.287485 -11.195936 -3.253738 -1.954607 -1.128511 1.128497 -0.000001 0.000002 0.000001 8.207799 -6.751698 -1.599595 -12.886567 10.518258 -7.139790 0.000000 -44.370499 0.284602 31.407119 9.802332 -6.855030 0.000003 -44.427902 -2.982197 10.736670 12.738304 -6.399093 0.000001 -8.728704 10.710600 -45.908024 -0.252202 4.896648 0.000004 -0.000700 9.278100 0.000000 -0.000000 -0.000000 -8.207800 -6.751705 -1.599594 -37.022917 -0.056130 3.104351 0.000003 -44.370495 0.286205 38.648704 -4.051433 1.948413 0.000002 -44.427700 -2.983803 -16.156309 -3.537264 5.152591 -0.000002 -8.728701 10.710600 -3.896941 0.000002 -0.000004 0.000002 -0.000700 9.278100 -0.000000 -0.000000 -0.000000 
